<svg width="32" height="28" viewBox="0 0 32 28" fill="none" xmlns="http://www.w3.org/2000/svg">
<path fill-rule="evenodd" clip-rule="evenodd" d="M31.3595 13.8338C31.3595 12.8746 31.2577 11.9524 31.0686 11.067H15.9997V16.2993H24.6105C24.2396 17.9901 23.1123 19.4227 21.4178 20.3818V23.7758H26.5886C29.614 21.4209 31.3595 17.9532 31.3595 13.8338Z" fill="#4285F4"/>
<path fill-rule="evenodd" clip-rule="evenodd" d="M15.9995 27.0528C20.3195 27.0528 23.9412 25.8415 26.5885 23.7757L21.4176 20.3817C19.9849 21.1933 18.1522 21.6729 15.9995 21.6729C11.8323 21.6729 8.3051 19.2935 7.04693 16.0963H1.70156V19.6009C4.33425 24.0216 9.74508 27.0528 15.9995 27.0528Z" fill="#34A853"/>
<path fill-rule="evenodd" clip-rule="evenodd" d="M7.04717 16.0967C6.72717 15.2851 6.54536 14.4182 6.54536 13.5266C6.54536 12.6351 6.72717 11.7682 7.04717 10.9566V7.45203H1.70179C0.618172 9.2781 0 11.344 0 13.5266C0 15.7093 0.618172 17.7752 1.70179 19.6013L7.04717 16.0967Z" fill="#FBBC05"/>
<path fill-rule="evenodd" clip-rule="evenodd" d="M15.9995 5.37985C18.3486 5.37985 20.4576 6.06232 22.1158 7.40267L26.7048 3.52303C23.934 1.34035 20.3122 0 15.9995 0C9.74508 0 4.33425 3.03116 1.70156 7.45186L7.04693 10.9564C8.3051 7.75928 11.8323 5.37985 15.9995 5.37985Z" fill="#EA4335"/>
</svg>
