<svg width="19" height="24" viewBox="0 0 19 24" fill="none" xmlns="http://www.w3.org/2000/svg">
<path d="M18.7716 2.0682C18.7716 2.70359 18.2565 3.21867 17.6212 3.21867H4.92381C3.83124 3.21867 2.94555 4.24884 2.94555 5.51962C2.94555 6.7904 3.83124 7.82057 4.92381 7.82057H8.77164C14.2945 7.82057 18.7716 12.2977 18.7716 17.8206V22.7767C18.7716 23.4121 18.3288 23.9272 17.7825 23.9272H4.92381C2.73868 23.9272 0.967285 21.8668 0.967285 19.3253V5.51962C0.967285 2.97806 2.73868 0.917725 4.92381 0.917725H17.7825C18.3288 0.917725 18.7716 1.43281 18.7716 2.0682ZM2.94555 19.3253C2.94555 20.5961 3.83124 21.6263 4.92381 21.6263H11.041C14.2179 21.6263 16.7934 19.0508 16.7934 15.8739C16.7934 12.6969 14.2179 10.1215 11.041 10.1215H4.92381C4.0274 10.1215 2.94555 10.7122 2.94555 11.6086V19.3253ZM17.7825 5.51962C17.7825 6.15501 17.2674 6.67009 16.632 6.67009H4.92381C4.37753 6.67009 3.93468 6.155 3.93468 5.51962C3.93468 4.88424 4.37753 4.36915 4.92381 4.36915H16.632C17.2674 4.36915 17.7825 4.88423 17.7825 5.51962Z" fill="black"/>
</svg>
