<svg width="20" height="24" viewBox="0 0 20 24" fill="none" xmlns="http://www.w3.org/2000/svg">
<path d="M16.8043 23.3724H2.95652C2.41024 23.3724 1.96739 22.8573 1.96739 22.2219V12.7609C1.96739 12.2675 1.56748 11.8676 1.07416 11.8676C0.290339 11.8676 -0.113386 10.9301 0.425195 10.3607L9.21505 1.06641C9.5923 0.66748 10.1686 0.66748 10.5458 1.06641L19.3357 10.3607C19.8743 10.9301 19.4705 11.8676 18.6867 11.8676C18.1934 11.8676 17.7935 12.2675 17.7935 12.7609V22.2219C17.7935 22.8573 17.3506 23.3724 16.8043 23.3724ZM10.8696 18.5986C10.8696 19.9643 11.9767 21.0714 13.3424 21.0714C14.7081 21.0714 15.8152 19.9643 15.8152 18.5986V12.1097C15.8152 10.593 15.2345 9.13379 14.1923 8.03181C11.8508 5.55597 7.91004 5.55597 5.56855 8.03181C4.52637 9.13379 3.94565 10.593 3.94565 12.1097V18.5986C3.94565 19.9643 5.05277 21.0714 6.41848 21.0714C7.78418 21.0714 8.8913 19.9643 8.8913 18.5986V15.1577C8.8913 14.6114 9.33415 14.1686 9.88043 14.1686C10.4267 14.1686 10.8696 14.6114 10.8696 15.1577V18.5986Z" fill="black"/>
</svg>
