<svg width="20" height="21" viewBox="0 0 20 21" fill="none" xmlns="http://www.w3.org/2000/svg">
<path d="M5.3546 19.2973C4.6601 19.2973 3.99164 19.5616 3.48494 20.0365C2.37747 21.0746 0.565186 20.2893 0.565186 18.7714V2.0977C0.565186 1.63591 0.863185 1.41772 1.05432 1.41772H18.8587C19.0498 1.41772 19.3478 1.6359 19.3478 2.0977V18.6173C19.3478 19.0791 19.0498 19.2973 18.8587 19.2973H5.3546ZM3.87401 18.0412L3.53207 17.6764L3.87401 18.0412C3.94519 17.9745 4.03909 17.9373 4.13665 17.9373H10.7897C14.9759 17.9373 18.3695 14.5437 18.3695 10.3575C18.3695 6.17128 14.9759 2.77767 10.7897 2.77767H6.81804C3.90496 2.77767 1.54345 5.13918 1.54345 8.05226V17.0314C1.54345 18.243 2.99003 18.8698 3.87401 18.0412ZM9.46736 10.1667C9.46736 9.89653 9.68635 9.67754 9.95649 9.67754C10.2266 9.67754 10.4456 9.89653 10.4456 10.1667V10.5484C10.4456 10.8185 10.2266 11.0375 9.95649 11.0375C9.68635 11.0375 9.46736 10.8185 9.46736 10.5484V10.1667ZM5.51084 10.1667C5.51084 9.89653 5.72983 9.67754 5.99997 9.67754C6.27011 9.67754 6.4891 9.89653 6.4891 10.1667V10.5484C6.4891 10.8185 6.27011 11.0375 5.99997 11.0375C5.72983 11.0375 5.51084 10.8185 5.51084 10.5484V10.1667ZM13.4239 10.1667C13.4239 9.89653 13.6429 9.67754 13.913 9.67754C14.1832 9.67754 14.4021 9.89653 14.4021 10.1667V10.5484C14.4021 10.8185 14.1832 11.0375 13.913 11.0375C13.6429 11.0375 13.4239 10.8185 13.4239 10.5484V10.1667Z" stroke="black"/>
</svg>
